<svg width="0" height="0" class="hidden">
  <symbol xmlns="http://www.w3.org/2000/svg" viewBox="0 0 25 25" id="icon-arrow">
    <g clip-path="url(#clip0)">
      <path fill-rule="evenodd" clip-rule="evenodd" d="M9 7.4l4.6 4.6L9 16.6l1.4 1.4 6-6-6-6L9 7.4z" fill-opacity=".5"></path>
    </g>
    <defs>
      <clipPath id="clip0">
        <path fill="#fff" transform="rotate(-90 13.5 4.5)" d="M0 0h12v7.4H0z"></path>
      </clipPath>
    </defs>
  </symbol>
  <symbol xmlns="http://www.w3.org/2000/svg" viewBox="0 0 26 20" id="icon-email">
    <path d="M24.227 0H1.773C.768 0 0 .765 0 1.765v16.47C0 19.235.768 20 1.773 20h22.454C25.232 20 26 19.235 26 18.235V1.765C26 .765 25.232 0 24.227 0zm0 17l-4.668-4.647a.86.86 0 00-1.24 0 .85.85 0 000 1.235l4.667 4.647H3.014l4.668-4.647a.85.85 0 000-1.235.86.86 0 00-1.241 0L1.773 17V5.706l10.636 8a.955.955 0 00.532.176.955.955 0 00.532-.176l10.754-8V17zm0-15.235V3.47l-11.286 8.352L1.773 3.471V1.765h22.454z"></path>
  </symbol>
  <symbol xmlns="http://www.w3.org/2000/svg" viewBox="0 0 22 24" id="icon-phone">
    <path d="M3.456 6.742c-.084-1.198.181-2.378.885-3.327.61-.861 1.404-1.331 2.361-1.606.807-.239 1.335.054 1.568.95.332 1.34.806 2.681.978 4.092.055.622-.347 1.5-.782 1.952-1.09 1.074-.864 1.855-.036 3.479.257.524.664 1.43 1.458 2.628.828 1.207 1.266 1.855 2.329 1.305 1.18-.594 2.041-.212 2.932.747.604.693 1.268 1.288 1.872 1.98.873 1.03.834 1.74.151 2.467-1.229 1.34-3.258 1.782-4.768.885-.834-.488-1.664-1.128-2.325-1.873-2.914-3.32-5.016-7.182-6.282-11.54a10.989 10.989 0 01-.34-2.139z" stroke-width="2" stroke-miterlimit="10"></path>
  </symbol>
  <symbol xmlns="http://www.w3.org/2000/svg" viewBox="0 0 14 19" id="icon-play">
    <path fill-rule="evenodd" clip-rule="evenodd" d="M.6.4l13 9.1-13 9.1V.4z"></path>
  </symbol>
</svg>
